<svg width="18" height="18" viewBox="0 0 18 18" fill="none" xmlns="http://www.w3.org/2000/svg">
<path d="M9 16.0338C12.8864 16.0338 16.0369 12.8845 16.0369 8.9997C16.0369 5.11489 12.8864 1.96564 9 1.96564C5.11364 1.96564 1.96313 5.11489 1.96313 8.9997C1.96313 12.8845 5.11364 16.0338 9 16.0338Z" fill="#E0E7EC"/>
<path d="M9 0.28125C4.19344 0.28125 0.28125 4.19175 0.28125 9C0.28125 13.8066 4.19175 17.7182 9 17.7182C13.8094 17.7182 17.7188 13.8077 17.7188 9C17.7188 4.19344 13.8083 0.28125 9 0.28125ZM9 15.6038C5.35866 15.6038 2.39484 12.6411 2.39484 8.99972C2.39484 5.35838 5.35781 2.39344 9 2.39344C12.6413 2.39344 15.6054 5.35781 15.6054 9C15.6054 12.6413 12.6427 15.6038 9 15.6038Z" fill="#405866"/>
</svg>
